<svg width="26" height="15" viewBox="0 0 26 15" fill="none" xmlns="http://www.w3.org/2000/svg">
<path d="M0 7.09091C0 3.17157 3.198 0 7.15 0H20.8C23.673 0 26 2.30777 26 5.15702C26 8.00628 23.673 10.314 20.8 10.314H9.75C7.956 10.314 6.5 8.87008 6.5 7.09091C6.5 5.31174 7.956 3.86777 9.75 3.86777H19.5V6.44628H9.633C8.918 6.44628 8.918 7.73554 9.633 7.73554H20.8C22.23 7.73554 23.4 6.57521 23.4 5.15702C23.4 3.73884 22.23 2.57851 20.8 2.57851H7.15C4.641 2.57851 2.6 4.60264 2.6 7.09091C2.6 9.57917 4.641 11.6033 7.15 11.6033H19.5V14.1818H7.15C3.198 14.1818 0 11.0102 0 7.09091Z" fill="white"/>
</svg>
