<svg width="36" height="20" viewBox="0 0 36 20" fill="none" xmlns="http://www.w3.org/2000/svg">
<path d="M0 10C0 4.47273 4.428 0 9.9 0H28.8C32.778 0 36 3.25455 36 7.27273C36 11.2909 32.778 14.5455 28.8 14.5455H13.5C11.016 14.5455 9 12.5091 9 10C9 7.49091 11.016 5.45455 13.5 5.45455H27V9.09091H13.338C12.348 9.09091 12.348 10.9091 13.338 10.9091H28.8C30.78 10.9091 32.4 9.27273 32.4 7.27273C32.4 5.27273 30.78 3.63636 28.8 3.63636H9.9C6.426 3.63636 3.6 6.49091 3.6 10C3.6 13.5091 6.426 16.3636 9.9 16.3636H27V20H9.9C4.428 20 0 15.5273 0 10Z" fill="#9FB3C8"/>
</svg>
