<svg width="36" height="36" viewBox="0 0 36 36" fill="none" xmlns="http://www.w3.org/2000/svg">
<path d="M28.71 19.404C28.764 18.954 28.8 18.486 28.8 18C28.8 17.514 28.764 17.046 28.692 16.596L31.734 14.22C32.004 14.004 32.076 13.608 31.914 13.302L29.034 8.31601C28.854 7.99201 28.476 7.88401 28.152 7.99201L24.57 9.43201C23.814 8.85601 23.022 8.38801 22.14 8.02801L21.6 4.21201C21.546 3.85201 21.24 3.60001 20.88 3.60001H15.12C14.76 3.60001 14.472 3.85201 14.418 4.21201L13.878 8.02801C12.996 8.38801 12.186 8.87401 11.448 9.43201L7.86604 7.99201C7.54204 7.86601 7.16404 7.99201 6.98404 8.31601L4.10404 13.302C3.92404 13.626 3.99604 14.004 4.28404 14.22L7.32604 16.596C7.25404 17.046 7.20004 17.532 7.20004 18C7.20004 18.468 7.23604 18.954 7.30804 19.404L4.26604 21.78C3.99604 21.996 3.92404 22.392 4.08604 22.698L6.96604 27.684C7.14604 28.008 7.52404 28.116 7.84804 28.008L11.43 26.568C12.186 27.144 12.978 27.612 13.86 27.972L14.4 31.788C14.472 32.148 14.76 32.4 15.12 32.4H20.88C21.24 32.4 21.546 32.148 21.582 31.788L22.122 27.972C23.004 27.612 23.814 27.126 24.552 26.568L28.134 28.008C28.458 28.134 28.836 28.008 29.016 27.684L31.896 22.698C32.076 22.374 32.004 21.996 31.716 21.78L28.71 19.404ZM18 23.4C15.03 23.4 12.6 20.97 12.6 18C12.6 15.03 15.03 12.6 18 12.6C20.97 12.6 23.4 15.03 23.4 18C23.4 20.97 20.97 23.4 18 23.4Z" fill="#D9E2EC"/>
</svg>
