<svg xmlns="http://www.w3.org/2000/svg" viewBox="0 0 984.71 852.13"><defs><style>.cls-1{fill:#b6e0fe;}</style></defs><g id="Layer_2" data-name="Layer 2"><g id="Layer_2-2" data-name="Layer 2"><path class="cls-1" d="M984.55,203.25c-3.24,83.89-18.66,153.29-56.27,215.25-14.14,23.3-15.4,46.27-18.81,71.05-4.51,32.76-14.28,64.76-20.85,97.28-2.89,14.3-3.24,29.11-5.14,43.63-1.4,10.62-1.11,22.31-5.64,31.53-15.07,30.69-40,52.48-70.31,67.27-18.13,8.84-37.61,15.06-56.78,21.57-4.6,1.56-11,.91-15.54-1.07-10.07-4.39-15.65.13-21.18,7.56-19,25.58-37.08,52.82-65.17,69.12-17.23,10-36.88,17.86-56.41,21.39-38.1,6.89-77,6.85-112.86-10.3-15.73-7.53-28.62-20.95-43-31.41-3.33-2.42-8-5.76-11.28-5.08-31,6.3-54.63-7.5-75.68-27.5-11.11-10.56-20.69-22.71-31.47-33.64-3.06-3.1-7.71-5.92-11.91-6.41-37.33-4.35-71.46-16.18-100.09-41.32-24.34-21.38-41.3-47.64-51.43-78.4-.9-2.72-2.51-6-4.78-7.35-42.62-25.58-71.12-64.07-97-105.1-29.07-46.13-45.56-97-51.81-150.51-3-25.52.55-51.93,2.36-77.85C7.3,218.77,19.39,166.43,44.85,118.18A348.17,348.17,0,0,1,121.6,20.25C147-2.36,175.78-2.49,207.18,3c57.88,10.1,85.93,52.24,110.77,98.64,11.61,21.69,22.88,43.57,34.85,65.06,6.13,11,16.34,14.71,28.68,12.65,30.36-5.08,60.69-10.29,91.09-15.12,8.33-1.32,16.85-1.48,25.28-2.18-4.38-7.13-9.12-14.07-13.07-21.43-15-28-24.38-57.84-24.93-89.77-.09-5,5.53-10.17,8.52-15.26,2.58,4.33,7.1,8.52,7.45,13,3.07,39.35,17.48,74.37,38.94,107,5,7.53,10.28,9.19,16.71,2,15.47-17.27,30.62-34.84,46.5-51.72,2.9-3.09,8.63-3.52,13.06-5.17,0,4.57,1.81,10.49-.37,13.49-13.16,18-27.24,35.38-41,53a25.27,25.27,0,0,0-1.84,3.31,20.27,20.27,0,0,0,3.07,1c47.79,7.19,92.33,2.25,133.3-27.48C726,113.64,770.85,88.16,821.56,74.88c29.48-7.72,59-7.48,87.93,1.11C932,82.67,944,101.85,954.88,121,971.5,150.07,986.39,179.84,984.55,203.25ZM206.28,19.34c2.51,3.67,3.87,6.07,5.63,8.14C235.21,54.85,250.3,85.8,253.45,122c1.09,12.55,3.21,25.08,3.3,37.63.27,36.54-1.62,73.11-17.12,106.9-10.59,23.08-28.49,43.7-34.89,67.63-11,41.1-17.05,83.73-22.41,126.08-5.65,44.64-8.55,89.66-11.54,134.59-.72,10.88.5,23.15,5,32.88,17,37.09,44.66,64.7,83.07,79,39.46,14.66,79.69,21.46,118.93-2.35,30.82-18.7,59.82-39.5,73.95-74.22,4.6-11.28,15.22-24.06,1.66-37.14-1.26-1.22.16-5.08.08-7.71-.14-4.45,1.3-10.76-1.05-13-9.77-9.32-21-17.09-31.06-26.16-3.51-3.18-5.09-8.48-7.56-12.81,5.08-1.09,10.15-3,15.23-3,2.91,0,6,2.77,8.69,4.78,5.8,4.39,7.09,3,8.31-4,3.41-19.61.38-42.9,17.07-56.56S490,446.67,488.5,424.75c-.13-2.07,5.09-4.5,7.82-6.77,1.79,2.75,5.09,5.48,5.11,8.24.09,9.21.35,18.8-2.06,27.53-1.9,6.9-6.83,13.49-11.84,18.89-5.62,6.08-12.85,10.67-19.38,15.9,28.15-9.2,54.37-12.51,80.1,4.14a14.15,14.15,0,0,0,3.65,1.14c0-1.32.53-3.12-.13-3.89-4.9-5.74-10.18-11.16-15.06-16.91-2.89-3.4-7.44-7.2-7.48-10.86a255,255,0,0,1,2.73-36c.35-2.62,4.28-4.76,6.56-7.12,2.17,2.69,6,5.24,6.2,8.09.6,7.18-1.41,14.64-.44,21.72.77,5.58,4,11,6.87,16.07,5.05,9,13.36,17,15.4,26.54,3,14,1.81,28.83,2.14,43.32.36,15.86-3.07,30-18.21,37.28,19.81,13.95,42.56,13.4,65.43,14.7,19.88,1.13,39.53,6.07,59.29,9.26,4.45.72,8.93,1.34,13.42,1.75,12.47,1.13,24.94,2.29,37.43,3.06,3.64.23,7.93.21,10.94-1.46,10.65-5.92,20.7-12.93,31.45-18.63,1.64-.87,7.2,2.36,8.36,4.89.9,2-1.7,7.92-3.68,8.41-16.84,4.24-28,15.19-35.27,30a152.67,152.67,0,0,0-15.3,77.43c1.5,24.47,16.79,38,36.34,32.38,42.17-12.17,76.31-36.15,100-73.26,5.77-9,7.46-21,9.59-32,3.49-17.87,3.54-36.68,9-53.84,19.93-62.64,27.31-123.63,1.08-187.62C853.17,325.33,815,276.71,758.83,241.32c-15.34-9.68-30.34-20-44.85-30.82-2.49-1.86-1.75-8-2.5-12.2,3.67.64,7.89.33,10.89,2.1,10.09,5.91,19.53,13,29.76,18.6,2,1.13,8.67-1.26,9.51-3.44,22.18-57.49,61.4-99.92,115.5-131.92-13.16.92-25,.79-36.49,2.72-49.22,8.26-91.08,33.11-132.59,59.05-21.26,13.29-43,26.36-65.87,36.37-32.88,14.4-67.38,8.34-101.64,3.43-21.7-3.11-44-6.35-65.64-4.63-26.59,2.11-52.92,8.7-79.11,14.49-39.88,8.82-50.71,2.63-67.73-34.49a912.9,912.9,0,0,0-47.73-91.37C264.28,42.58,240.86,23.73,206.28,19.34Zm35.79,144.8C243.23,115.9,230.72,67,189.31,28.38c-15.49-14.45-29.9-16.82-47.8-3.74-34.63,25.3-60,58.77-80.7,95.56-22.48,40-35.38,83.55-39.76,129.24-3,31.14-7.86,62.72-5.5,93.61,4.27,56,22.77,108.17,53.52,155.72,20,31,41.6,60.42,71.9,82.26,4.83,3.48,10.49,5.81,15.76,8.67,1-6,2.54-11.92,2.92-17.93,2.95-47.2,4.45-94.52,8.91-141.57,2.93-30.83,10-61.26,15.31-91.86.91-5.29,2.37-8.27-6.57-7.51-10.72.92-23.44-.09-32.47-5.23-22.79-13-36.6-50.46-30.18-75.94.68-2.67,4.65-4.52,7.1-6.75,2,3.17,5.16,6.14,5.78,9.56,1.91,10.63,1.75,21.72,4.43,32.11,4.1,15.89,12.88,30.34,30.13,32.69,19.17,2.61,34.62-7.44,45.72-23C234.24,257.05,242.36,214.7,242.07,164.14ZM968.87,216c-2-41.28-17-78.29-43.42-110.59-4.49-5.49-13.32-11.94-19-11A105.8,105.8,0,0,0,870,107.86c-43.29,25.94-71.87,64.7-93.13,109.74-5.44,11.55-1.78,16.77,7.54,23.65,32.56,24,62.95,50.36,82.61,86.81,3.6,6.66,7.93,12.92,11.92,19.37,6.13-6.65,12.46-13.14,18.29-20.06,1.89-2.24,2.55-5.56,3.65-8.42,3.42-8.88,6.36-18,10.44-26.53,1.19-2.48,5.59-4.65,8.51-4.64,1.68,0,5.26,5.19,4.73,7.15-6.59,24.18-14.41,47.74-35.39,64.2-2.34,1.83-3.79,7.59-2.74,10.48,5.13,14.19,11.2,28.06,17.06,42,1.45,3.45,3.38,6.69,5.09,10,2.55-3.27,5.81-6.2,7.52-9.86C925.29,392,934.92,372.4,943,352.15,960.23,308.77,967,263.26,968.87,216ZM570.44,606.58c-4.37-1.48-5.43-2.22-6.38-2.11-28.58,3.46-57.19,6.71-85.66,10.92-3.42.51-7.31,5.87-8.85,9.81-9,23-20.87,43.93-39.47,60.67-1,.92-.48,6,.52,6.42,23.79,10.32,47.27,21.66,71.8,29.89,24.69,8.29,49.21,10.19,65.32-17.84,4-6.94,12.53-6.9,16.83.19,9.21,15.18,22.3,22.06,39.52,22.71,7.54.28,15.06,1.11,22.58,1.8,19.8,1.83,37.65-6,45.51-22.36,11.94-24.92,19.09-52.24,26.7-79,.85-3-7.84-10.87-13.38-12.78-4.35-1.5-13.94-5.24-15.42,6.38-.5,3.87-3.59,7.42-5.49,11.11-3.68-2.65-7.5-5.13-11-8-7.24-5.87-13.46-14.33-21.7-17.32-10.47-3.79-22.52-3.26-33.9-4.43-1.53-.16-3.16.62-4.74,1,.65,1.73.9,3.81,2,5.15,5.22,6.22,10.94,12,16,18.35,13.79,17.15,5.27,48-15.08,56.07-27.65,11-54.8,11.6-82.13-1.52-16-7.7-24.91-17.81-24.43-30.77.62-16.58,10.68-28.87,28.37-34.46C547.75,613.38,557.57,610.49,570.44,606.58ZM550,835.34c45,2.66,83.47-6.85,113.07-39.57,14.8-16.36,27.45-34.72,42.93-50.34,8.48-8.56,12.45-15.33,6-26.07a53.68,53.68,0,0,1-2.92-6.72c-3.79,4-7.72,7.84-11.22,12.06-.56.68.32,3.47,1.34,4.41,6.63,6.08,3.08,10.15-2.4,14.07-7.26,5.19-15.3,9.61-21.53,15.84C655.91,778.4,635,795.4,609.41,805.87c-39.16,16-78.4,24.23-114.81-5.48-14.41-11.77-26.76-26.28-38.93-40.49-13.62-15.91-25.83-33-38.94-49.37-5.66-7.06-11.35-6.16-19.55-1.73-17.3,9.34-35.79,16.48-53.84,24.41-2.44,1.07-5.19,1.46-7.8,2.17,1.4,2.91,2.09,6.62,4.32,8.6,13.15,11.7,25.87,24.17,40.37,34,8.09,5.47,19.3,6.43,29.19,9.07,1.9.5,4.22-.62,6.35-1-1-1.86-1.74-4-3.15-5.55-5.35-5.73-11.51-10.82-16.14-17.07-1.87-2.52-.59-7.38-.75-11.17,3.8.23,8.79-1,11.15,1a138.12,138.12,0,0,1,18.75,19.17C458.41,812.73,496.66,841.9,550,835.34ZM459.5,542.87c2.4,5.47,6.85,16.15,11.85,26.55.71,1.48,4.15,2.47,6.23,2.33,12.49-.86,25.17-4.08,37.37-2.74,15,1.65,22.89-9.38,33.86-14.76,2.32-1.13,3.35-5.6,4.28-8.74,6.34-21.53-6.92-45.71-35.56-48.76C484.51,493.23,459.51,509.29,459.5,542.87ZM444.17,718.78c10.41,13,21.27,26.83,32.56,40.29,1.06,1.26,5.52,1.19,7.35,0,22.13-13.76,47.11-13.3,68,2.37,7.54,5.66,14.22,7.59,24.2,5.7,12.59-2.38,27-3.63,38.8.29,17.92,6,29.83,1.67,40.21-12.33,1.72-2.32,3.36-4.7,5-7.06-2.84-.9-5.65-2.5-8.52-2.59-24.89-.81-49.81-1.08-74.69-2.06-21.48-.84-43.35-.23-64.28-4.23C489.56,734.76,467.15,725.82,444.17,718.78ZM575.7,678.72l.81-2.84c3.91,0,7.93.58,11.73-.1,13.78-2.44,25.65-8.12,32-21.6,6-12.71-3.64-19.55-9.83-28.54-8.45-12.27-16.07-15.64-29.89-7.41C565.78,627,548.75,632,533.87,640.58c-11.7,6.76-10.58,19.44,1.76,24.75C548.52,670.88,562.3,674.35,575.7,678.72Zm-59.24,83c-8.46,3.21-15.56,5.49-22.17,8.75-1.32.65-2.1,6.08-.93,7.56,11.83,14.89,27.33,23.12,46.34,25.74,27.48,3.79,51.79-5.14,75.59-17a18,18,0,0,0,3.12-2.52c-1.55-.95-3-2.32-4.67-2.79-21.82-6.09-41.86-1.83-60.86,10-2.8,1.76-7.34.72-11.08,1,.41-3.56.92-7.11,1.21-10.67.2-2.38,1-6.39,0-6.93C534.36,770.21,525.4,766.09,516.46,761.76ZM534.19,590c0-1.49-.09-3-.13-4.47-17.54,1.07-35.1,1.89-52.58,3.53-2.38.22-4.37,4.56-6.54,7,3,.84,6.08,2.75,8.86,2.34C500.64,595.86,517.4,592.83,534.19,590Z"/><path class="cls-1" d="M686,491.89c-28.11,2.43-52.4,28.89-44.13,51.34,3.44,9.34,12.69,16.46,18.9,24.89,2.26,3.07,3.36,7,5,10.55-4.24.5-9.48,2.88-12.55,1.22-32.14-17.37-35.88-66-6.21-87.54,8.43-6.11,10.8-12.47,10.66-21.65-.08-5.57-.08-11.37,1.38-16.65.82-3,4.67-5.12,7.16-7.64,2.1,2.59,5.32,4.92,6,7.85.84,3.61-1.1,7.82-.59,11.6.65,4.93,2.12,13.65,4,13.84,7.54.8,17,1.89,19.41-9.1,1.9-8.7,2.5-17.74,5.06-26.21,1.23-4.08,5.65-7.21,8.62-10.77,1.92,4,5.76,8.16,5.37,11.9-1.07,10.21-4.13,20.21-5.95,30.36-.48,2.68.14,7.86,1.15,8.1,5,1.19,13.5,3.3,15,1.11,8-11.58,14-24.56,21.46-36.61,2.4-3.88,7-6.41,10.59-9.56,1,4.84,4.21,10.75,2.51,14.32-6.31,13.28-14.51,25.65-21.36,38.7-1.57,3-2,8.23-.47,10.95,14.66,25.33,9.24,59.2-13.39,77.69-3.28,2.68-8.06,5-12.08,4.89-3.83-.11-7.58-3.59-11.36-5.59,2.58-3,4.61-7.65,7.85-8.77,14-4.83,18.24-16.75,21.21-28.82,3.19-13,2.56-26.81-9.76-34.92C709.32,500.68,697.23,496.94,686,491.89Z"/><path class="cls-1" d="M453.4,320c15.38,0,31-1.6,46,.68,7.46,1.13,14.21,9,20.43,14.69,1.56,1.44-.16,6.42-.36,9.78-3.34-.22-7.6.82-9.87-.85-34.7-25.45-84.12-4.36-90.48,39-1.13,7.73-.73,15.69-2.06,23.37-.54,3.12-3.8,5.77-5.82,8.63-2.44-2.58-6.78-5-7-7.77-2.44-26.94,4.55-50.94,23.77-70.78,2.38-2.47,5.08-5.58,5.63-8.74,7-40.34,51.35-56.23,84.15-45.81,3.94,1.25,6.34,7.36,9.45,11.22-4.65.9-9.88,3.64-13.87,2.39C490.14,288.51,464.58,298.76,453.4,320Z"/><path class="cls-1" d="M765.66,382l-8.37,10.68c-2.42-4.59-6-8.93-7-13.8-2.65-12.79-2.87-26.19-6.48-38.64-4-13.94-17.11-18.71-28.58-9.89-10,7.69-17.29,18.92-26.13,28.25-2.83,3-6.79,4.9-10.23,7.31-1-4.14-3.75-9-2.53-12.3,6.89-18.86,20.59-32,38.84-39.57,17.67-7.35,35.73,1.6,42.73,20A62,62,0,0,1,761.41,347C762.94,357.53,764,368.1,765.66,382Z"/><path class="cls-1" d="M779.05,301.18a4.43,4.43,0,0,1,0,1.67c-2.61,6-5.29,12-7.95,18-2-5.76-5-11.38-5.86-17.3-1.45-10.51-.33-21.83-13.12-26.53-14.65-5.39-25.06,2-35.33,11.14-3.25,2.88-8.27,3.77-12.48,5.58.72-4.88-.08-10.81,2.43-14.44,9.37-13.5,23.66-18.62,39.44-18.25C767.51,261.59,778.84,276,779.05,301.18Z"/><path class="cls-1" d="M690.43,557.09c-13-.15-20.78-7.83-20.58-20.37.17-10.25,10.54-18.58,23.17-18.61,11.6,0,17,6.64,17.07,21C710.12,550.31,702.58,557.22,690.43,557.09Z"/><path class="cls-1" d="M501.91,551.89c-12.24.05-20.67-7.9-20.6-19.44s8.71-19.36,21.61-19.54,20.63,7.68,20.74,21C523.75,545,515.48,551.84,501.91,551.89Z"/><path class="cls-1" d="M594.56,660.91c-18.81-.2-32.92-9-32.8-19.88.1-8.55,11.38-16.93,22.73-16.87,15.39.08,28.51,10.29,27.88,22.08S602.74,659.88,594.56,660.91Z"/></g></g></svg>